<?xml version="1.0" encoding="UTF-8" standalone="no"?>
<svg width="103px" height="118px" viewBox="0 0 103 118" version="1.1" xmlns="http://www.w3.org/2000/svg" xmlns:xlink="http://www.w3.org/1999/xlink" xmlns:sketch="http://www.bohemiancoding.com/sketch/ns">
    <!-- Generator: Sketch 3.2.2 (9983) - http://www.bohemiancoding.com/sketch -->
    <title>avatar</title>
    <desc>Created with Sketch.</desc>
    <defs></defs>
    <g id="jimis-avatar-icons" stroke="none" stroke-width="1" fill="none" fill-rule="evenodd" sketch:type="MSPage">
        <g sketch:type="MSArtboardGroup" transform="translate(-349.000000, -126.000000)" id="avatars">
            <g sketch:type="MSLayerGroup" transform="translate(109.000000, 120.000000)">
                <g id="avatar" transform="translate(240.000000, 6.000000)" sketch:type="MSShapeGroup">
                    <path d="M89.3595816,47.5926469 C89.3360429,47.5926469 89.317212,47.5995882 89.2960272,47.5995882 L89.2960272,27.0694994 C89.2960272,14.0360282 69.5259062,3.47366419 50.6949778,3.47366419 C31.8640494,3.47366419 13.7039728,14.0360282 13.7039728,27.0694994 L13.7039728,47.5995882 C13.682788,47.5995882 13.6639571,47.5926469 13.6404184,47.5926469 C8.05940198,47.5926469 3.53056369,52.4631346 3.53056369,58.4696837 C3.53056369,64.4762329 8.05940198,69.3467205 13.6404184,69.3467205 C13.6639571,69.3467205 13.682788,69.3397792 13.7039728,69.3397792 C13.7039728,69.3397792 12.2469297,82.5213318 12.2469297,90.6218436 C12.2469297,98.7223553 41.5502082,114.263954 41.5502082,114.263954 L51.1633972,114.532352 L60.7271549,114.530038 C60.7271549,114.530038 90.512976,98.7177278 90.512976,90.6218436 C90.512976,82.5259593 89.2960272,69.3397792 89.2960272,69.3397792 C89.317212,69.3397792 89.3360429,69.3467205 89.3595816,69.3467205 C94.940598,69.3467205 99.4694363,64.4762329 99.4694363,58.4696837 C99.4694363,52.4631346 94.940598,47.5926469 89.3595816,47.5926469" id="Fill-1" fill="#FFFFFF"></path>
                    <path d="M89.5987344,65.8723622 L85.4300376,65.8700484 L85.7784098,69.6553776 C85.792533,69.7849487 86.9835892,82.7744583 86.9835892,90.6181415 C86.8917884,93.7648699 74.0467414,103.408667 59.8270366,111.057993 L54.6956086,111.060307 L54.6956086,98.6723779 L47.6340104,98.6723779 L47.6340104,110.960815 L42.4931669,110.819675 C28.4664791,103.281409 15.8238645,93.7463597 15.7791411,90.6204553 C15.7791411,82.8045373 17.2032301,69.8451068 17.2173532,69.7155356 L17.6410491,65.8700484 L13.4299828,65.8723622 C9.89918369,65.7451048 7.06277509,62.4734328 7.06277509,58.4706092 C7.06277509,54.4770407 9.88506049,51.2099963 13.4017364,51.0688563 L14.6516393,51.0688563 C15.148305,59.9861291 22.668907,67.0986608 31.8654617,67.0986608 C37.0416132,67.0986608 41.6810831,64.8381066 44.847033,61.279527 L44.847033,67.6053766 C44.847033,68.9589325 45.127143,70.2523304 45.6332242,71.4254123 L40.9113689,71.4254123 C33.8191705,71.4254123 28.0498448,76.4439813 28.0498448,82.6148081 L28.0498448,100.773282 L35.111443,100.773282 L35.111443,82.6148081 C35.111443,80.3126061 37.7666039,78.3667248 40.9113689,78.3667248 L61.6042054,78.3667248 C60.0553616,79.5305516 56.2821143,80.6897508 51.2330716,80.6897508 C47.0314207,80.6897508 43.0416177,79.8359693 41.0643702,78.5148062 L38.4162709,82.3417832 C41.2008945,84.2066825 45.9980735,85.3172925 51.2330716,85.3172925 C56.884704,85.3172925 61.8772539,84.0609149 64.5841998,81.960011 L61.7007139,78.3667248 L62.8517544,78.3667248 C65.9965195,78.3667248 68.6493265,80.3126061 68.6493265,82.6148081 L68.6493265,100.773282 L75.7109247,100.773282 L75.7109247,82.6148081 C75.7109247,76.4439813 69.9439528,71.4254123 62.8517544,71.4254123 L51.2801489,71.4254123 C50.2256169,70.4721387 49.5547651,69.1185827 49.5547651,67.6053766 L49.5547651,52.0568364 L53.1679495,52.0568364 C54.14245,60.5090414 61.453558,67.0986608 70.3088021,67.0986608 C79.5077106,67.0986608 87.0236049,59.9861291 87.5249784,51.07117 L89.570488,51.0688563 C93.1012871,51.1937999 95.9376957,54.4654719 95.9376957,58.4706092 C95.9376957,62.461864 93.1154103,65.7289084 89.5987344,65.8723622 L89.5987344,65.8723622 Z M17.2361842,27.0681111 C17.2361842,26.1379753 17.4009548,25.2194082 17.6457569,24.3100963 C21.896839,22.8986961 27.2354072,19.7612228 27.2354072,19.7612228 L34.8854718,24.9834036 L49.3029014,19.7612228 L60.7779984,26.413314 L70.1934627,19.7612228 L78.1377606,26.413314 L84.7403549,22.8061452 C85.3829603,24.2059766 85.7642866,25.6335732 85.7642866,27.0681111 L85.7642866,45.9947568 C82.6760143,42.9336379 76.1416822,41.7466735 70.3135098,41.7466735 C63.6473612,41.7466735 56.0608509,43.2968999 53.7611237,47.4292947 L48.4107862,47.4292947 C46.1110591,43.2968999 38.5316104,41.7466735 31.8654617,41.7466735 C26.5127703,41.7466735 20.5692585,42.7485362 17.2361842,45.2798016 L17.2361842,27.0681111 Z M102.999294,58.4706092 C102.999294,51.818518 98.672888,46.2076237 92.8258848,44.5926116 L92.8258848,27.0681111 C92.8258848,11.1192886 70.6195124,0.0016196396 50.6963901,0.0016196396 C31.1287016,0.0016196396 10.174586,10.8763427 10.174586,27.0681111 L10.174586,44.5926116 C4.32522887,46.2076237 0.00117693303,51.818518 0.00117693303,58.4706092 C0.00117693303,65.0000706 4.16987371,70.5276692 9.8568141,72.256056 C9.41899501,76.7401439 8.71754293,84.8522246 8.71754293,90.6204553 C8.71754293,99.8014981 30.507281,112.351391 39.873314,117.319057 L40.612428,117.710085 L51.068301,117.999306 L51.1177322,118.00162 L61.6183286,117.999306 L62.4045199,117.585141 C71.9164926,112.534179 94.0451874,99.7968705 94.0451874,90.6204553 C94.0451874,84.8591659 93.4567209,76.7401439 93.0918716,72.2745662 C98.8023507,70.560062 102.999294,65.0208945 102.999294,58.4706092 L102.999294,58.4706092 Z" id="Fill-3" fill="#395AA8"></path>
                </g>
            </g>
        </g>
    </g>
</svg>