<?xml version="1.0" encoding="UTF-8" standalone="no"?>
<svg width="109px" height="144px" viewBox="0 0 109 144" version="1.1" xmlns="http://www.w3.org/2000/svg" xmlns:xlink="http://www.w3.org/1999/xlink" xmlns:sketch="http://www.bohemiancoding.com/sketch/ns">
    <!-- Generator: Sketch 3.2.2 (9983) - http://www.bohemiancoding.com/sketch -->
    <title>avatar</title>
    <desc>Created with Sketch.</desc>
    <defs></defs>
    <g id="jimis-avatar-icons" stroke="none" stroke-width="1" fill="none" fill-rule="evenodd" sketch:type="MSPage">
        <g sketch:type="MSArtboardGroup" transform="translate(-576.000000, -343.000000)" id="avatars">
            <g sketch:type="MSLayerGroup" transform="translate(109.000000, 120.000000)">
                <g id="avatar" transform="translate(466.000000, 223.000000)" sketch:type="MSShapeGroup">
                    <path d="M19.4705642,67.2361412 C19.3034728,67.2361412 19.1363813,67.2477962 18.9669692,67.2734371 C17.653445,67.4715716 16.548785,68.0496583 15.8525708,68.9028024 C15.1934879,69.7139886 14.9451715,70.7046613 15.1192251,71.8491798 L15.1540358,72.2151459 C15.1609979,72.3247027 15.9221922,84.0169722 22.3180805,84.0472752 L25.7829068,84.0635921 L25.7829068,87.5437673 C25.7829068,108.511065 54.037602,126.82569 59.0642689,127.023825 C64.0862944,126.82569 92.3224238,108.511065 92.3224238,87.5437673 L92.3224238,84.0635921 L95.7872501,84.0472752 C102.231873,84.0146413 102.944333,72.3340267 102.951295,72.2151459 L102.983785,71.8491798 C103.160159,70.7046613 102.909522,69.7139886 102.250439,68.9028024 C101.554225,68.0496583 100.451886,67.4715716 99.1360407,67.2734371 C98.6718979,67.2058382 98.2263207,67.2431342 97.7877058,67.306071 L93.9329995,67.8841577 L93.7937566,63.9727486 C93.5686474,57.5112312 92.8306603,51.9308298 91.5960403,47.0986777 C89.0014819,48.0730335 85.1653413,48.2362031 79.484233,46.2735056 C72.9978368,47.0240859 63.9261651,47.2898193 54.4112369,45.0497333 C45.0378724,42.8422813 37.1288784,38.6534838 31.6635965,35.1196958 C27.112676,41.7164109 24.7548304,51.1895734 24.3069325,63.9727486 L24.1676897,67.8841577 L20.3129834,67.306071 C20.0368184,67.2664441 19.756012,67.2361412 19.4705642,67.2361412" id="Fill-1" fill="#FFFFFF"></path>
                    <path d="M76.3665855,67.1587522 C72.3912022,67.0305474 68.5202509,68.7135256 65.5358125,72.0235382 L67.2531409,73.5899666 C68.6130795,72.084144 70.1772408,70.9792525 71.8411929,70.2892781 C71.620725,70.6995331 71.47452,71.1587391 71.4257851,71.650579 C71.2285243,73.6505725 72.6812914,75.4384454 74.6747849,75.63658 C76.6682784,75.8370455 78.4459455,74.3755118 78.6432062,72.3708564 C78.7429969,71.3778526 78.4343419,70.4384617 77.8564841,69.7228464 C79.8987125,70.1587424 81.6949453,71.226338 82.9063581,72.8300623 L84.7559673,71.4174795 C82.8158503,68.8580473 79.7594697,67.3056048 76.3665855,67.1587522 L76.3665855,67.1587522 Z M78.3368719,61.0049261 C72.8530243,60.6995658 67.2717067,63.4827735 64.4288318,65.1704136 L65.612396,67.1797311 C67.7172838,65.9256559 73.1593585,63.0375535 78.2045912,63.3312588 C84.5656688,63.697225 86.6287837,67.5806622 86.707688,67.7391698 L88.7893686,66.7018772 C88.6826157,66.4874257 86.1043023,61.452477 78.3368719,61.0049261 L78.3368719,61.0049261 Z M59.2606013,101.736728 L55.84451,100.046757 C50.4511703,101.41272 45.0392648,101.990806 45.0392648,101.990806 C45.0392648,101.990806 52.2033095,111.347419 59.2606013,111.347419 C66.3178931,111.347419 73.4819378,101.990806 73.4819378,101.990806 C73.4819378,101.990806 68.0723531,101.41272 62.6790133,100.046757 L59.2606013,101.736728 Z M58.8127035,93.2379212 C61.6509369,93.2379212 63.9600475,91.140026 63.9600475,88.5666078 L61.6393333,88.5666078 C61.6393333,89.8556479 60.3699027,90.9069265 58.8127035,90.9069265 C57.2531835,90.9069265 55.9837529,89.8556479 55.9837529,88.5666078 L53.6630387,88.5666078 C53.6630387,91.140026 55.9721493,93.2379212 58.8127035,93.2379212 L58.8127035,93.2379212 Z M102.985177,71.8510445 L102.950367,72.2146797 C102.943404,72.3335605 102.233266,84.0141751 95.7863218,84.046809 L92.3214956,84.0631259 L92.3214956,87.5433011 C92.3214956,108.510599 64.0853661,126.827555 59.0633406,127.02569 C54.0366737,126.827555 25.7819785,108.510599 25.7819785,87.5433011 L25.7819785,84.0631259 L22.3171522,84.046809 C15.9212639,84.0165061 15.1600697,72.3242365 15.1531075,72.2146797 L15.1182968,71.8510445 C14.9442432,70.7041951 15.1948804,69.7135224 15.8539632,68.9023362 C16.5501775,68.0491921 17.6525167,67.4711054 18.9683616,67.2729709 C19.1377738,67.24733 19.3025445,67.235675 19.4696359,67.235675 C19.7550837,67.235675 20.0382109,67.2659779 20.3143759,67.3056048 L24.1690821,67.8860225 L24.3060043,63.9722824 C24.7562228,51.1891072 27.1117477,41.7159447 31.6626682,35.1192296 C37.1302708,38.6530176 45.0369441,42.8418151 54.4103087,45.0515981 C63.9275575,47.2916841 72.9992293,47.0236197 79.4856254,46.2730394 C85.164413,48.2357369 89.0005536,48.0725673 91.5974327,47.1005425 C92.8320527,51.9303636 93.5677191,57.510765 93.7951491,63.9722824 L93.9320712,67.8860225 L97.7867775,67.3056048 C98.2253924,67.242668 98.6709696,67.207703 99.1374331,67.2729709 C100.450957,67.4711054 101.555617,68.0491921 102.249511,68.9023362 C102.910914,69.7135224 103.159231,70.7041951 102.985177,71.8510445 L102.985177,71.8510445 Z M109.896264,72.7065196 C110.302389,69.6808885 109.501743,66.762483 107.638209,64.4734462 C105.930164,62.377882 103.444679,60.9536442 100.597162,60.4268394 C100.204962,53.8930611 99.2488274,46.879098 96.9327546,40.4059256 C100.093567,14.4386443 72.8947971,2.8069806 58.2859013,0.879247953 C55.2666522,0.482978848 51.2587788,0.352443143 46.7681968,0.823304079 C39.1144815,0.322140212 30.0126404,1.82330082 19.1609809,6.3873885 C19.1609809,6.3873885 21.7439358,6.76267866 25.6056042,7.86523916 C13.6910576,15.2265205 3.10628019,29.3546796 0.999071714,55.4781376 C8.41607425,46.5084698 15.6474196,40.4572075 22.6722215,36.718292 C19.2422059,44.1495032 17.9704545,52.631993 17.503991,60.4291704 C14.6587954,60.9536442 12.1709898,62.380213 10.4675856,64.4734462 C8.60173138,66.762483 7.80108499,69.6808885 8.20720997,72.7065196 C8.5065821,78.4127947 10.8667484,87.2472647 17.5944988,90.1097263 C15.2320118,91.3917734 13.6028704,93.9558676 13.6028704,96.9442028 C13.6028704,100.244891 15.5801189,103.042085 18.348731,104.144646 C15.5801189,105.251868 13.6028704,108.046731 13.6028704,111.347419 C13.6028704,114.662094 15.5940432,117.461618 18.381221,118.561848 C15.5940432,119.657415 13.6028704,122.461602 13.6028704,125.773946 C13.6028704,128.627083 15.092769,131.093276 17.2812024,132.428936 L17.0839417,132.428936 L13.4473826,143.52214 L27.9936191,143.52214 L24.3941914,132.547816 C26.7009813,131.24479 28.2837084,128.715661 28.2837084,125.773946 C28.2837084,122.461602 26.2925356,119.657415 23.5076786,118.561848 C26.1254442,117.526886 28.019147,114.986102 28.2419355,111.932499 C38.4368329,125.167887 53.9299208,134.018674 59.0633406,134.018674 C64.2176468,134.018674 79.8174875,125.090964 90.0077435,111.757674 C90.1655521,114.890531 92.0847827,117.508238 94.753604,118.561848 C91.968747,119.657415 89.9752535,122.461602 89.9752535,125.773946 C89.9752535,128.627083 91.465152,131.093276 93.6535855,132.428936 L93.4563248,132.428936 L89.8197657,143.52214 L104.366002,143.52214 L100.768895,132.547816 C103.073364,131.24479 104.656091,128.715661 104.656091,125.773946 C104.656091,122.461602 102.664919,119.657415 99.8800617,118.561848 C102.664919,117.461618 104.656091,114.662094 104.656091,111.347419 C104.656091,108.046731 102.678843,105.251868 99.9102309,104.144646 C102.678843,103.042085 104.656091,100.244891 104.656091,96.9442028 C104.656091,93.9255647 102.996781,91.3404915 100.594842,90.0700994 C107.255291,87.1680109 109.596892,78.3871538 109.896264,72.7065196 L109.896264,72.7065196 Z M52.0106902,67.1774001 L53.1942544,65.1727446 C50.3537003,63.4827735 44.7723826,60.7158827 39.288535,61.0049261 C31.5211047,61.452477 28.9451119,66.4874257 28.8406798,66.7018772 L30.9153983,67.7461628 C30.998944,67.5806622 33.0597382,63.697225 39.4208157,63.3312588 C44.4985384,63.0562014 49.9081231,65.9256559 52.0106902,67.1774001 L52.0106902,67.1774001 Z M45.784214,70.2869471 C47.4481661,70.9769215 49.0123275,72.084144 50.3699453,73.5899666 L52.0872738,72.0235382 C49.1028353,68.7135256 45.2458083,67.0375404 41.2588214,67.1587522 C37.8659372,67.3056048 34.8095567,68.8580473 32.8717603,71.4174795 L34.7213695,72.8300623 C35.9304616,71.226338 37.7266944,70.1587424 39.7689229,69.7228464 C39.191065,70.4384617 38.8824101,71.3778526 38.9822008,72.3708564 C39.1817822,74.3755118 40.9571285,75.8370455 42.9529427,75.63658 C44.9417948,75.4384454 46.3968826,73.6505725 46.1973012,71.650579 C46.1485662,71.1564081 46.0046819,70.6995331 45.784214,70.2869471 L45.784214,70.2869471 Z" id="Fill-3" fill="#395AA8"></path>
                </g>
            </g>
        </g>
    </g>
</svg>