<?xml version="1.0" encoding="UTF-8" standalone="no"?>
<svg width="103px" height="135px" viewBox="0 0 103 135" version="1.1" xmlns="http://www.w3.org/2000/svg" xmlns:xlink="http://www.w3.org/1999/xlink" xmlns:sketch="http://www.bohemiancoding.com/sketch/ns">
    <!-- Generator: Sketch 3.2.2 (9983) - http://www.bohemiancoding.com/sketch -->
    <title>avatar</title>
    <desc>Created with Sketch.</desc>
    <defs></defs>
    <g id="jimis-avatar-icons" stroke="none" stroke-width="1" fill="none" fill-rule="evenodd" sketch:type="MSPage">
        <g sketch:type="MSArtboardGroup" transform="translate(-119.000000, -120.000000)" id="avatars">
            <g sketch:type="MSLayerGroup" transform="translate(109.000000, 120.000000)">
                <g id="avatar" transform="translate(10.000000, 0.000000)" sketch:type="MSShapeGroup">
                    <path d="M89.3592699,62.7166667 C89.3357307,62.7166667 89.3168993,62.7237089 89.295714,62.7237089 L89.295714,41.8950704 C89.295714,28.6720657 69.5274952,17.9561033 50.6961364,17.9561033 C31.8647776,17.9561033 13.704286,28.6720657 13.704286,41.8950704 L13.704286,62.7237089 C13.6831007,62.7237089 13.6642693,62.7166667 13.6407301,62.7166667 C8.05723225,62.7166667 3.53064438,67.6579812 3.53064438,73.7518779 C3.53064438,79.8457746 8.05723225,84.7870892 13.6407301,84.7870892 C13.6642693,84.7870892 13.6831007,84.7800469 13.704286,84.7800469 C13.704286,84.7800469 12.2472096,98.1532864 12.2472096,106.371596 C12.2472096,114.589906 41.5488038,130.357512 41.5488038,130.357512 L51.1645664,130.629812 L60.7261888,130.627465 C60.7261888,130.627465 90.5150445,114.585211 90.5150445,106.371596 C90.5150445,98.1579812 89.295714,84.7800469 89.295714,84.7800469 C89.3168993,84.7800469 89.3357307,84.7870892 89.3592699,84.7870892 C94.9427678,84.7870892 99.4693556,79.8457746 99.4693556,73.7518779 C99.4693556,67.6579812 94.9427678,62.7166667 89.3592699,62.7166667" id="Fill-1" fill="#FFFFFF"></path>
                    <path d="M39.7774792,98.3612676 L39.8339732,103.056103 L63.2225208,102.767371 L63.1660268,98.0725352 L39.7774792,98.3612676 Z M89.6005467,81.2626761 L85.4294007,81.2603286 L85.5164957,82.2274648 L84.8291511,81.7485915 L69.2344321,104.049061 L73.0948607,106.734507 L86.0414198,88.22277 C86.3968617,92.6335681 86.9853417,100.779108 86.9853417,106.36831 C86.8911849,109.560798 74.0458443,119.342488 59.8281684,127.105399 L54.6966232,127.107746 L54.6966232,114.539671 L47.6348636,114.539671 L47.6348636,127.006808 L42.4939027,126.863615 C28.4645404,119.215728 15.8239908,109.542019 15.7792663,106.370657 C15.7792663,101.518545 16.3112522,94.7204225 16.727896,90.1382629 L28.3350748,106.734507 L32.1955033,104.049061 L17.4552572,82.9669014 L17.6412169,81.2603286 L13.4300543,81.2626761 C9.89917453,81.1335681 7.06270111,77.8143192 7.06270111,73.7532864 C7.06270111,69.7016432 9.88269709,66.3870892 13.3994533,66.2415493 L14.6493848,66.2415493 C15.1484158,75.2908451 22.6668358,82.5068075 31.8636006,82.5068075 C37.0398704,82.5068075 41.6794464,80.2133803 44.8454686,76.6007042 L44.8454686,83.020892 C44.8454686,88.5255869 49.3343937,93.0021127 54.8519819,93.0021127 L54.8519819,88.307277 C51.9307673,88.307277 49.5533083,85.936385 49.5533083,83.020892 L49.5533083,67.2462441 L53.1665753,67.2462441 C54.1458059,75.8190141 61.454727,82.5068075 70.3101735,82.5068075 C79.5069384,82.5068075 87.0253583,75.2908451 87.5243894,66.2438967 L89.5699457,66.2415493 C93.1008255,66.3706573 95.9372989,69.6899061 95.9372989,73.7532864 C95.9372989,77.8025822 93.1173029,81.1171362 89.6005467,81.2626761 L89.6005467,81.2626761 Z M17.2363427,41.8941315 C17.2363427,31.2086854 33.1841497,21.4762911 50.6949594,21.4762911 C68.3940827,21.4762911 85.7636573,31.5913146 85.7636573,41.8941315 L85.7636573,61.0960094 C82.6776684,57.9903756 76.1431869,56.7861502 70.3101735,56.7861502 C63.6438725,56.7861502 56.0618967,58.3589202 53.762117,62.5514085 L48.4116572,62.5514085 C46.1118775,58.3589202 38.5299016,56.7861502 31.8636006,56.7861502 C26.5107869,56.7861502 20.5647854,57.8025822 17.2363427,60.3683099 L17.2363427,41.8941315 Z M102.999058,73.7532864 C102.999058,67.0044601 98.6749077,61.3119718 92.8254168,59.6734742 L92.8254168,41.8941315 C92.8254168,41.7039906 92.7854002,41.5255869 92.7783385,41.3377934 L97.5968124,35.7532864 C96.4198525,17.3659624 72.880654,0.15 57.580175,0.15 L52.08848,0.15 L50.91152,0.15 L45.419825,0.15 C30.119346,0.15 6.58014754,17.3659624 5.40318762,35.7532864 L10.2122459,41.4152582 C10.207538,41.5795775 10.1745832,41.7321596 10.1745832,41.8941315 L10.1745832,59.6734742 C4.32509233,61.3119718 0.000941567939,67.0044601 0.000941567939,73.7532864 C0.000941567939,80.3776995 4.16973362,85.9856808 9.85680397,87.7392019 C9.41897488,92.2884977 8.71750676,100.518545 8.71750676,106.370657 C8.71750676,115.685211 30.5053889,128.417606 39.8739899,133.457512 L40.6107668,133.854225 L51.0645248,134.147653 L51.1163111,134.15 L61.6195014,134.147653 L62.4033567,133.725117 C71.9179008,128.603052 94.0471013,115.680516 94.0471013,106.370657 C94.0471013,100.525587 93.4562674,92.2884977 93.0914098,87.7556338 C98.8043733,86.0185446 102.999058,80.3988263 102.999058,73.7532864 L102.999058,73.7532864 Z M32.0801613,48.4669014 L32.0801613,44.9457746 L36.081825,44.9457746 L36.081825,48.4669014 L40.7896647,48.4669014 L40.7896647,44.9457746 L44.7913284,44.9457746 L44.7913284,48.4669014 L49.4991681,48.4669014 L49.4991681,44.9457746 L53.5008319,44.9457746 L53.5008319,48.4669014 L58.2086716,48.4669014 L58.2086716,44.9457746 L62.2103353,44.9457746 L62.2103353,48.4669014 L66.918175,48.4669014 L66.918175,44.9457746 L70.9198387,44.9457746 L70.9198387,48.4669014 L75.6276784,48.4669014 L75.6276784,44.9457746 L81.2182381,44.9457746 L81.2182381,40.250939 L75.6276784,40.250939 L75.6276784,36.7298122 L70.9198387,36.7298122 L70.9198387,40.250939 L66.918175,40.250939 L66.918175,36.7298122 L62.2103353,36.7298122 L62.2103353,40.250939 L58.2086716,40.250939 L58.2086716,36.7298122 L53.5008319,36.7298122 L53.5008319,40.250939 L49.4991681,40.250939 L49.4991681,36.7298122 L44.7913284,36.7298122 L44.7913284,40.250939 L40.7896647,40.250939 L40.7896647,36.7298122 L36.081825,36.7298122 L36.081825,40.250939 L32.0801613,40.250939 L32.0801613,36.7298122 L27.3723216,36.7298122 L27.3723216,40.250939 L21.7817619,40.250939 L21.7817619,44.9457746 L27.3723216,44.9457746 L27.3723216,48.4669014 L32.0801613,48.4669014 Z" id="Fill-3" fill="#395AA8"></path>
                </g>
            </g>
        </g>
    </g>
</svg>