<?xml version="1.0" encoding="UTF-8" standalone="no"?>
<svg width="103px" height="118px" viewBox="0 0 103 118" version="1.1" xmlns="http://www.w3.org/2000/svg" xmlns:xlink="http://www.w3.org/1999/xlink" xmlns:sketch="http://www.bohemiancoding.com/sketch/ns">
    <!-- Generator: Sketch 3.2.2 (9983) - http://www.bohemiancoding.com/sketch -->
    <title>avatar</title>
    <desc>Created with Sketch.</desc>
    <defs></defs>
    <g id="jimis-avatar-icons" stroke="none" stroke-width="1" fill="none" fill-rule="evenodd" sketch:type="MSPage">
        <g sketch:type="MSArtboardGroup" transform="translate(-579.000000, -126.000000)" id="avatars">
            <g sketch:type="MSLayerGroup" transform="translate(109.000000, 120.000000)">
                <g id="avatar" transform="translate(469.000000, 6.000000)" sketch:type="MSShapeGroup">
                    <path d="M86.7647574,51.0702445 L86.7647574,27.0694994 C86.7647574,16.9120453 69.390872,6.94432048 51.694507,6.94432048 C34.1840975,6.94432048 18.236655,16.5349007 18.236655,27.0694994 L18.236655,51.0702445 L14.4022071,51.0679307 C10.8831774,51.2113845 8.060892,54.478429 8.060892,58.4696837 C8.060892,62.4748211 10.8973006,65.7464931 14.4280997,65.8714367 L18.639166,65.8691229 L18.2131163,69.7169239 C18.1989931,69.8441813 16.777258,82.8059256 16.777258,90.6218436 C16.8243353,93.7454342 29.4622422,103.280484 43.4912838,110.818749 L52.2147114,111.061695 L60.8251535,111.059382 C75.0448583,103.407741 87.8899053,93.7639444 87.9817061,90.6195298 C87.9817061,82.7735328 86.788296,69.786337 86.7788806,69.654452 L86.4281545,65.8691229 L90.5992052,65.8714367 C94.1158811,65.7302967 96.9381665,62.4632522 96.9381665,58.4696837 C96.9381665,54.4668601 94.1017579,51.1951881 90.5709588,51.0679307 L86.7647574,51.0702445 Z" id="Fill-1" fill="#FFFFFF"></path>
                    <path d="M70.1723556,50.9480774 C65.8694884,50.5547364 61.6819607,52.2021412 58.6643044,55.4784408 L60.4085192,57.0332948 C61.7902385,55.5339713 63.468545,54.4626953 65.2810219,53.8356634 C65.156267,54.143395 65.0550508,54.4673229 65.0220966,54.8143885 C64.822018,56.7996039 66.297892,58.5742662 68.3151552,58.7709367 C70.3371262,58.969921 72.1401876,57.5191867 72.3426201,55.5293437 C72.4108822,54.8583502 72.2743579,54.2220632 72.0060172,53.6528755 C73.9973879,54.2567697 75.6521557,55.4344791 76.6266563,57.0032157 L78.6368579,55.7977411 C76.9585514,53.0975705 73.7949554,51.2835742 70.1723556,50.9480774 L70.1723556,50.9480774 Z M52.9232251,95.0161572 C49.4795191,95.0161572 46.633695,96.5339909 46.0828904,98.5261476 L59.7682676,98.5261476 C59.2127552,96.5339909 56.3716389,95.0161572 52.9232251,95.0161572 L52.9232251,95.0161572 Z M34.2711905,87.0521579 C34.2711905,87.0521579 42.7380467,93.5816192 53.1797965,93.5816192 C63.6215463,93.5816192 72.0860487,87.0521579 72.0860487,87.0521579 L53.1797965,87.9337046 L34.2711905,87.0521579 Z M79.5736966,47.4542834 C80.1386244,48.0257848 80.5293662,48.6828957 80.6682443,48.9790584 L84.942865,47.0378047 C84.7733867,46.6791702 84.135489,45.4251064 82.9491405,44.2288868 L79.5736966,47.4542834 Z M90.5992052,65.8718994 L86.4281545,65.8695857 L86.7788806,69.6549148 C86.788296,69.7867997 87.9817061,82.7739956 87.9817061,90.6199925 C87.8899053,93.7644071 75.0448583,103.408204 60.8251535,111.057531 L52.2147114,111.059844 L43.4912838,110.819212 C29.4622422,103.280947 16.8243353,93.745897 16.777258,90.6199925 C16.777258,82.8063884 18.1989931,69.844644 18.2131163,69.7150728 L18.639166,65.8695857 L14.4280997,65.8718994 C10.8973006,65.7469558 8.060892,62.4729701 8.060892,58.4701465 C8.060892,54.476578 10.8831774,51.2095335 14.4022071,51.0683935 L18.236655,51.0707073 L18.236655,27.0699622 C18.236655,16.5353634 34.1840975,6.94246946 51.694507,6.94246946 C69.390872,6.94246946 86.7647574,16.9125081 86.7647574,27.0699622 L86.7647574,51.0707073 L90.5709588,51.0683935 C94.1017579,51.1933371 96.9381665,54.4673229 96.9381665,58.4701465 C96.9381665,62.463715 94.1158811,65.7307594 90.5992052,65.8718994 L90.5992052,65.8718994 Z M103.999765,58.4701465 C103.999765,51.8180553 99.6733588,46.2071609 93.8263555,44.5921489 L93.8263555,27.0699622 C93.8263555,11.1188259 71.6199832,0.00115688543 51.694507,0.00115688543 C32.1244647,0.00115688543 11.1750568,10.8781937 11.1750568,27.0699622 L11.1750568,44.5921489 C5.32569965,46.2071609 0.99929384,51.8180553 0.99929384,58.4701465 C0.99929384,64.9996078 5.17034449,70.5272064 10.8572849,72.2555932 C10.4194658,76.7396812 9.71565984,84.8517618 9.71565984,90.6199925 C9.71565984,92.9869801 11.1774107,95.5760897 13.4865533,98.2022197 C14.6399476,99.5141277 16.0051899,100.835291 17.5187258,102.142571 C24.7168482,108.366615 35.12329,114.271358 40.8714309,117.320908 L41.6105449,117.709622 L52.064064,117.998843 L52.1134952,118.001157 L62.6187994,117.998843 L63.4049907,117.584678 C69.4049952,114.398616 80.4116729,108.158376 87.7298425,101.679817 C89.2598554,100.326261 90.6133284,98.9634503 91.7384763,97.6145219 C93.7698627,95.1827487 95.0433043,92.8018785 95.0433043,90.6199925 C95.0433043,84.8587031 94.4548378,76.7396812 94.0876347,72.2741034 C99.8028214,70.561913 103.999765,65.0204318 103.999765,58.4701465 L103.999765,58.4701465 Z M39.9510693,54.8143885 C39.9181152,54.4673229 39.8168989,54.143395 39.6944979,53.8356634 C41.5046209,54.4626953 43.1829274,55.5339713 44.5693545,57.0332948 L46.3112154,55.4784408 C43.2888514,52.2021412 39.0966159,50.5547364 34.8031642,50.9480774 C31.1829182,51.2835742 28.0193223,53.0975705 26.336308,55.7977411 L28.3441558,57.0032157 C29.3210102,55.4344791 30.9804858,54.2567697 32.9695026,53.6528755 C32.698808,54.2220632 32.5646376,54.8583502 32.6352536,55.5293437 C32.8329783,57.5191867 34.6360397,58.969921 36.6603646,58.7709367 C38.6776278,58.5742662 40.1535018,56.7996039 39.9510693,54.8143885 L39.9510693,54.8143885 Z M70.3653726,47.2252201 L69.6803976,42.6462676 C64.1535201,43.4422047 58.0122835,44.5643836 57.9534369,44.5759525 L58.8173057,49.1271397 C58.8761524,49.1155709 64.9255881,48.0072747 70.3653726,47.2252201 L70.3653726,47.2252201 Z M46.1841066,49.1271397 L47.0479754,44.5759525 C46.4359703,44.4648915 32.0467871,41.8364478 27.3931939,41.8364478 C22.6360306,41.8364478 20.3033493,46.5056374 20.0561934,47.0401184 L24.3308142,48.9767446 C24.6344629,48.3242613 25.8584732,46.4639895 27.3931939,46.4639895 C30.8957466,46.4639895 42.1448725,48.3867331 46.1841066,49.1271397 L46.1841066,49.1271397 Z M77.6011568,46.4639895 C77.8812669,46.4639895 78.1543153,46.51952 78.4250099,46.6352085 L80.286918,42.3824977 C79.4277569,42.0215494 78.5262262,41.8364478 77.6011568,41.8364478 L76.9726746,41.8480166 L77.1327375,46.4709308 L77.6011568,46.4639895 Z M74.9530575,46.6398361 L74.4469763,42.0377458 C73.7078624,42.1187278 72.8981324,42.2135924 72.0530945,42.3200259 L72.6650997,46.9082335 C73.4724758,46.8041138 74.2445438,46.7138767 74.9530575,46.6398361 L74.9530575,46.6398361 Z M52.4359748,80.2057099 C57.6262495,80.2057099 61.8514391,76.4435185 61.8514391,71.8182906 L57.143707,71.8182906 C57.143707,73.8914292 55.0322891,75.5781682 52.4359748,75.5781682 C49.8373067,75.5781682 47.7282427,73.8914292 47.7282427,71.8182906 L43.0181568,71.8182906 C43.0181568,76.4435185 47.2457002,80.2057099 52.4359748,80.2057099 L52.4359748,80.2057099 Z M42.9028173,71.3485951 L42.3614281,69.0996098 C41.3939892,69.3217318 40.5254126,69.8122512 39.8545608,70.5156376 C38.884768,71.5244417 38.3975177,72.8618012 38.479903,74.2824565 C38.5622883,75.6753466 39.1931244,76.9826271 40.2453026,77.963666 C41.0597402,78.720269 42.0671949,79.2223573 43.154681,79.4120865 L43.5642537,77.1330222 C42.9357715,77.024275 42.3473049,76.7304261 41.8647624,76.2815545 C41.2480495,75.7054256 40.8808464,74.9488225 40.8290613,74.1436303 C40.7843379,73.368517 41.045617,72.6466205 41.5658214,72.1051981 C41.923609,71.7303673 42.3826129,71.4689112 42.9028173,71.3485951 L42.9028173,71.3485951 Z" id="Fill-3" fill="#395AA8"></path>
                </g>
            </g>
        </g>
    </g>
</svg>