<?xml version="1.0" encoding="UTF-8" standalone="no"?>
<svg width="124px" height="127px" viewBox="0 0 124 127" version="1.1" xmlns="http://www.w3.org/2000/svg" xmlns:xlink="http://www.w3.org/1999/xlink" xmlns:sketch="http://www.bohemiancoding.com/sketch/ns">
    <!-- Generator: Sketch 3.2.2 (9983) - http://www.bohemiancoding.com/sketch -->
    <title>avatar</title>
    <desc>Created with Sketch.</desc>
    <defs></defs>
    <g id="jimis-avatar-icons" stroke="none" stroke-width="1" fill="none" fill-rule="evenodd" sketch:type="MSPage">
        <g sketch:type="MSArtboardGroup" transform="translate(-338.000000, -353.000000)" id="avatars">
            <g sketch:type="MSLayerGroup" transform="translate(109.000000, 120.000000)">
                <g id="avatar" transform="translate(228.000000, 233.000000)" sketch:type="MSShapeGroup">
                    <path d="M105.097469,63.7822844 C104.634499,63.7033863 104.173879,63.7335532 103.72971,63.7915665 L99.8167926,64.299763 L99.7462896,60.4035902 C99.5206799,47.9655401 97.4149899,38.6091562 93.1307566,31.9863586 L89.7207607,30.2784472 L59.505518,55.2844972 L78.0478113,25.8183852 L63.5570913,39.1962507 L57.1953692,52.9221959 L58.6782826,43.7027233 L52.9557878,48.9842535 L59.2211558,40.3309907 L61.5994576,25.5329598 L48.2908382,46.9677115 L52.9416872,27.7049775 L41.3180899,42.5935091 L46.6363674,29.9187648 C46.6363674,29.9187648 39.7435225,42.9531916 35.7601021,46.7495815 C34.2771887,48.1651058 32.2114503,48.6036863 30.2044644,48.5967247 C29.6545409,51.8408281 29.2644242,55.3494721 29.0599655,59.18067 L28.8508065,63.0722017 L24.9566899,62.4294144 C24.5125209,62.3574779 24.0636517,62.3087467 23.5889314,62.3737216 C22.2564244,62.5477615 21.1283761,63.1046891 20.4092454,63.93776 C19.7277162,64.7337024 19.4574547,65.7176079 19.6125613,66.86163 L20.096682,71.9621588 C20.4092454,74.2664468 22.7428952,76.1066284 25.2998046,75.7655103 C25.5489153,75.7307023 25.7839253,75.6541247 26.0189354,75.5845088 L30.6509835,74.1968308 L30.5663799,78.9771262 C30.4441747,85.876067 31.527571,96.114253 33.5533577,101.298321 C35.8729069,107.238882 53.0944437,119.484328 63.338532,119.660689 C73.5379683,119.837049 90.3176862,109.227578 93.140157,103.470339 C95.4526559,98.7387744 97.3867886,88.4889858 97.5324949,80.1350715 L97.6170985,75.3547762 L102.199795,76.9002503 C102.427754,76.9814689 102.660414,77.0673286 102.909525,77.1067776 C105.508736,77.540717 107.851786,75.7979977 108.270104,73.3498367 L108.892881,68.5440155 C109.10909,67.2700436 108.87408,66.276856 108.220752,65.4600288 C107.532173,64.5991116 106.422925,64.0027349 105.097469,63.7822844" id="Fill-1" fill="#FFFFFF"></path>
                    <path d="M86.3013644,73.1481825 L75.91392,73.1481825 L75.91392,76.1254247 L86.3013644,76.1254247 C90.2753844,76.1254247 92.5291308,71.6653627 92.6254849,71.5029255 L91.2459759,70.365865 C91.2224749,70.3890703 88.8888251,73.1481825 86.3013644,73.1481825 M42.2369792,76.1254247 L52.6009226,76.1254247 L52.6009226,73.1481825 L42.2369792,73.1481825 C39.6307177,73.1481825 37.3205689,70.3890703 37.2947178,70.365865 L35.9175589,71.5029255 C36.0115629,71.6653627 38.2676594,76.1254247 42.2369792,76.1254247 M108.812977,67.7715105 L108.277155,72.5866138 C107.901138,75.0394159 105.58864,76.8239048 102.984728,76.436376 C102.733267,76.3992475 102.500607,76.3180289 102.267947,76.2437719 L101.823778,76.1022194 C102.282048,74.642605 102.55701,73.1040924 102.587561,71.5052461 C102.636913,68.6417099 101.936583,65.9336494 100.669879,63.5365401 L103.567553,63.1095622 C104.011722,63.0445874 104.467642,63.0051383 104.935312,63.0747543 C106.265468,63.2719995 107.384116,63.8498119 108.089147,64.696806 C108.756575,65.504351 109.008036,66.4928975 108.812977,67.7715105 M84.9618071,54.0826938 C76.7200045,53.9411414 69.6885036,59.1576967 67.4676586,66.3583067 L61.0988862,66.2469212 C59.1342021,58.9743747 52.2907093,53.5211251 44.0536069,53.3749316 C37.6918848,53.2658666 32.0492934,56.3591354 28.7803035,61.083738 L28.8273055,59.7888813 C28.9659614,55.9553629 29.2902753,52.4397573 29.7837964,49.1886924 C31.7907823,49.1585255 33.8494704,48.685137 35.3065327,47.2464073 C39.2218002,43.3804015 45.8819852,30.2299481 45.8819852,30.2299481 L40.7893173,42.9928727 L52.1473532,27.9047753 L47.8396189,47.2464073 L60.7651719,25.5842436 L58.6477313,40.419403 L52.53982,49.1817308 L58.1659607,43.8027382 L56.8475543,53.0477367 L62.964866,39.2127265 L77.2158757,25.5842436 L59.1976548,55.3682684 L88.9663784,29.8424193 L92.4069256,31.4923174 C96.8086639,38.0408579 99.078861,47.3577928 99.52303,59.7888813 L99.5935331,61.7636538 C96.437348,57.2293348 91.0814689,54.1894383 84.9618071,54.0826938 M84.4353846,83.6648323 C77.1430226,83.5418442 71.3030227,77.8426182 71.425228,70.9668827 C71.5474332,64.0911472 77.5824914,58.596128 84.8795536,58.7237573 C92.1719155,58.8513865 98.0095653,64.5482919 97.8897102,71.4240274 C97.7651548,78.3020835 91.7324467,83.7924616 84.4353846,83.6648323 M30.5170278,70.2591205 C30.639233,63.383385 36.6742912,57.8906864 43.9713534,58.0159951 C51.2660655,58.1436243 57.099015,63.8382092 56.9768098,70.7162653 C56.8569547,77.5943213 50.8218965,83.0846994 43.5295345,82.9593907 C36.2324723,82.834082 30.3948226,77.1371766 30.5170278,70.2591205 M93.6830302,102.964695 C90.9616138,108.770665 74.3746041,119.667882 64.1751678,119.667882 C53.9287294,119.667882 36.4933335,107.721785 34.0656796,101.822993 C32.2067501,97.3049179 31.0081988,88.8883493 30.7402874,82.2307437 C33.9411243,85.4586034 38.4368666,87.512274 43.447281,87.6004542 C53.2965524,87.7675324 61.446701,80.2861381 61.6723107,70.8995873 L66.7297271,70.9877675 C66.6216224,80.3766389 74.5015096,88.136497 84.353131,88.3058958 C89.5327526,88.3963965 94.2282535,86.3589697 97.5630462,83.0545325 C97.1705794,90.6078633 95.6101126,98.8434304 93.6830302,102.964695 M26.8038689,76.0117187 L26.0776879,76.2437719 C25.8426778,76.3180289 25.6100179,76.3992475 25.3609072,76.436376 C22.808698,76.8215843 20.446847,75.0231722 20.0919818,72.7235252 L19.5185573,67.6322786 C19.3422997,66.4928975 19.5937605,65.504351 20.261189,64.696806 C20.9662192,63.8498119 22.0848671,63.2719995 23.4126739,63.0747543 C23.8850441,63.0051383 24.3386135,63.0445874 24.7827825,63.1095622 L27.3772935,63.49245 C26.4161024,65.5368384 25.8614786,67.7970363 25.8191768,70.1779019 C25.7815752,72.2222904 26.1434907,74.1808191 26.8038689,76.0117187 M117.872615,65.3697602 C122.027593,69.2589713 125.00047,73.1597852 125.00047,73.1597852 C124.276639,67.9966021 122.091046,62.5131856 119.61639,57.971905 C121.50352,60.4339892 122.650369,62.3298636 122.650369,62.3298636 C121.371915,58.8049759 119.675142,54.5444796 117.804462,50.4951517 C120.699786,54.4609405 122.650369,57.6888001 122.650369,57.6888001 C119.907802,50.1308283 116.688164,34.0518639 109.273597,28.030084 C109.008036,27.1738078 108.530965,26.2339925 107.767183,25.1967148 C101.499465,16.6896455 81.5259601,-1.48940014 59.9825884,0.831131591 C47.9030716,2.13294989 34.4604965,7.01998972 24.3386135,15.1418508 C14.0522234,23.3936616 8.25922557,35.8038653 6.72460991,41.4891681 C5.3827025,43.7911356 4.14419952,46.4435033 3.05610296,49.5506953 C3.05610296,49.5506953 5.27694798,47.7058726 8.8397004,45.8030366 C8.88435231,45.8169598 8.91960382,45.8332035 8.96425573,45.8448062 C5.92322563,49.0494605 3.16890779,53.5048814 0.99976499,59.7030217 C0.99976499,59.7030217 3.78698423,57.3940926 8.11586943,55.2731266 C5.27929808,59.2273127 3.11955568,64.6805622 2.23826798,72.2501367 C2.23826798,72.2501367 3.95854157,70.0293879 6.94786946,67.4489566 C6.91496806,67.5208931 6.86326584,67.5719448 6.83271454,67.6485223 C4.26875484,73.8629063 3.6483283,81.7457526 6.70345901,91.7890139 C6.70345901,91.7890139 7.93021149,87.6909549 10.8701873,82.5834646 C11.145149,84.6881868 11.6974227,86.9344616 12.5622597,89.3269298 C10.93364,93.6106314 9.80559172,98.7529297 9.38962393,104.95339 C9.38962393,104.95339 12.733817,100.187018 18.4704124,95.5854039 C18.9686337,101.235899 21.6665492,109.035206 25.5136637,115.702093 C25.5136637,115.702093 24.4843197,108.0513 26.3973016,101.02473 C26.7474665,102.263894 27.1211325,103.438083 27.5347502,104.442873 C31.1351042,113.202881 51.4164719,126.629477 64.1751678,126.629477 C76.8234089,126.629477 96.0707323,114.453647 100.080004,105.883924 C100.763883,104.421989 101.370209,102.686231 101.908382,100.797318 C102.3267,106.452454 103.337243,112.095987 105.417082,115.702093 C105.417082,115.702093 107.315963,97.9755515 111.20068,89.2178648 C112.702394,92.234556 113.259368,94.7105634 113.259368,94.7105634 C115.090096,89.2874807 115.275754,84.9712917 114.48142,81.5113789 C116.474305,85.4980524 117.207537,88.7769637 117.207537,88.7769637 C119.651641,81.5415458 119.872551,75.8028708 118.775054,71.2151796 C118.577645,69.1081368 118.274482,67.1612107 117.872615,65.3697602 M63.9519082,109.025924 C71.8740972,109.025924 79.0654048,103.477532 83.2720848,98.3978883 L44.6364319,98.3978883 C48.8642627,103.523943 56.0344195,109.025924 63.9519082,109.025924 M64.2597714,90.7842237 C67.1503951,90.7842237 69.4769946,88.6980657 69.4769946,86.1199549 L67.1268941,86.1199549 C67.1268941,87.4194527 65.8343388,88.463692 64.2597714,88.463692 C62.685204,88.463692 61.3902986,87.4194527 61.3902986,86.1199549 L59.0401981,86.1199549 C59.0401981,88.6980657 61.3902986,90.7842237 64.2597714,90.7842237" id="Fill-3" fill="#395AA8"></path>
                </g>
            </g>
        </g>
    </g>
</svg>